<svg fill="none" viewBox="0 0 314 75" xmlns="http://www.w3.org/2000/svg"><path d="m172.628 27.5972h-172.628v46.9218h172.628z" fill="#fff"/><g fill="#000"><path d="m24.9912 63.849c-3.88 0-6.9051-1.0358-9.0589-3.0909-2.1537-2.0551-3.2223-5.1788-3.2223-9.3547v-13.4486h6.642v14.0075c0 3.6499 1.8743 5.557 5.6392 5.705 3.7485-.1644 5.6392-2.0551 5.6392-5.705v-14.0075h6.642v13.4486c0 4.1759-1.0686 7.2832-3.2224 9.3547-2.1537 2.0551-5.1624 3.0909-9.0588 3.0909z"/><path d="m49.2583 56.0562h-1.4139v7.3161h-6.5763v-25.4338h6.5763v13.1855h1.3317l5.5898-7.3162h6.5763v.9043l-6.4612 8.2532v.822l6.9709 8.6808v.9042h-6.9216z"/><path d="m63.9243 43.8081h6.5763v2.0387c.7234-.7892 1.5948-1.3975 2.5812-1.8414.9865-.4439 2.0715-.6576 3.2553-.6576v6.8064c-.2631-.0493-.5755-.0986-.9536-.1315s-.7234-.0657-1.0358-.0657c-.8878 0-1.6933.2301-2.4332.6905-.7234.4603-1.2002 1.1179-1.4139 1.9729v10.7522h-6.5763z"/><path d="m99.3202 63.3725h-6.5763v-2.8113c-.5754 1.233-1.6276 2.3017-2.5976 2.6962-.9865.3946-2.0551.5919-3.2224.5919-1.2495 0-2.4168-.2466-3.4855-.7234-1.0686-.4768-1.9893-1.1673-2.7784-2.0551-.7892-.8878-1.3811-1.9564-1.825-3.2224-.4274-1.2659-.6412-2.6798-.6412-4.2417s.2138-2.9758.6412-4.2417c.4275-1.2659 1.0358-2.3346 1.825-3.2224.7891-.8878 1.7098-1.5783 2.7784-2.0551 1.0687-.4768 2.236-.7234 3.4855-.7234 1.1673 0 2.2524.1973 3.2224.6083.97.4111 1.7756.9207 2.5976 2.4004v-2.5483h6.5763zm-10.407-5.7049c1.2495 0 2.2359-.3617 2.9758-1.0687.7234-.7234 1.1015-1.7098 1.1015-2.9922s-.3617-2.2688-1.1015-2.9922c-.7234-.7234-1.7263-1.0686-2.9758-1.0686s-2.2359.3616-2.9758 1.0686c-.7234.7234-1.1015 1.7098-1.1015 2.9922s.3617 2.2688 1.1015 2.9922c.7399.707 1.7263 1.0687 2.9758 1.0687z"/><path d="m103.775 38.4153c0-1.0193.313-1.8249.921-2.4332.608-.5918 1.43-.9042 2.45-.9042 1.019 0 1.825.2959 2.433.9042.592.6083.904 1.4139.904 2.4332 0 1.0358-.296 1.8579-.904 2.4497-.592.5919-1.414.8878-2.433.8878-1.02 0-1.825-.2959-2.45-.8878-.608-.5918-.921-1.4139-.921-2.4497zm.083 24.9571h6.576v-19.5645h-6.576z"/><path d="m115.004 43.8081h6.576v2.0387c.723-.7892 1.595-1.3975 2.581-1.8414.987-.4439 2.072-.6576 3.239-.6576 1.48 0 2.746.263 3.749.7891 1.019.5261 1.841 1.2331 2.466 2.1373.624.9043 1.068 1.9565 1.331 3.1567.263 1.2001.395 2.4825.395 3.8306v10.1275h-6.576v-10.0452c0-1.1016-.296-2.0058-.905-2.7128-.608-.7234-1.43-1.0686-2.466-1.0686-1.167 0-2.088.3452-2.762 1.0193-.657.6741-1.019 1.6276-1.068 2.8607v9.9795h-6.577v-19.6138z"/><path d="m159.904 55.9084v1.2495c-.312.9371-.789 1.8085-1.43 2.6141-.642.8056-1.414 1.5125-2.335 2.1209-.921.5918-1.956 1.0686-3.107 1.4303-1.168.3453-2.417.5261-3.782.5261-1.562 0-3.008-.2466-4.324-.7234-1.315-.4768-2.449-1.1673-3.403-2.0551-.953-.8878-1.693-1.9564-2.252-3.2224-.543-1.2659-.822-2.6798-.822-4.2417s.279-2.9758.822-4.2417c.542-1.2659 1.299-2.3346 2.252-3.2224.954-.8878 2.088-1.5783 3.403-2.0551 1.316-.4768 2.762-.7234 4.324-.7234 1.381 0 2.68.1973 3.88.559 1.2.3782 2.269.9207 3.206 1.6441s1.71 1.5947 2.335 2.6141c.608 1.0357 1.019 2.1866 1.233 3.469v2.9757h-14.715c.214 1.0194.658 1.8085 1.365 2.3675s1.611.8385 2.696.8385c.888 0 1.644-.148 2.286-.4768.641-.3124 1.134-.7891 1.463-1.4468zm-10.637-7.0037c-.888 0-1.661.1973-2.302.5918-.658.3946-1.134.9207-1.447 1.6112h7.514c-.658-1.4796-1.907-2.203-3.765-2.203z"/></g><path d="m280.858 27.5972h-124.078v46.9218h124.078z" fill="#fcdf51"/><path d="m177.114 46.7347h-.427v17.1641h-6.642v-25.4174h9.42l10.605 17.1806h.427v-17.1806h6.642v25.4339h-9.387z" fill="#000"/><path d="m227.703 45.5345c-.707-1.6441-1.677-3.0415-2.927-4.1924-1.249-1.1509-2.745-2.0386-4.455-2.6634-1.726-.6247-3.584-.9371-5.59-.9371-2.039 0-3.913.3124-5.606.9371-1.71.6248-3.19 1.5125-4.439 2.6634-1.25 1.1509-2.236 2.5483-2.927 4.1924-.707 1.6441-1.052 3.4854-1.052 5.5076s.345 3.8801 1.052 5.5077c.707 1.6441 1.677 3.0415 2.927 4.2088 1.249 1.1673 2.729 2.0551 4.439 2.6799 1.71.6247 3.584.9371 5.606.9371 2.006 0 3.88-.3124 5.59-.9371 1.726-.6248 3.206-1.5126 4.455-2.6799 1.25-1.1673 2.236-2.5647 2.927-4.2088.707-1.6441 1.052-3.4855 1.052-5.5077s-.345-3.8635-1.052-5.5076zm-7.695 10.7851c-1.315 1.2495-3.09 1.8743-5.293 1.8743-2.22 0-3.979-.6248-5.294-1.8743-1.316-1.2495-1.973-3.0086-1.973-5.2775 0-2.2359.657-3.9951 1.973-5.2446 1.315-1.2495 3.09-1.8742 5.294-1.8742 2.219 0 3.978.6247 5.293 1.8742 1.316 1.2495 1.973 2.9923 1.973 5.2446 0 2.2689-.657 4.028-1.973 5.2775z" fill="#000"/><path d="m229.544 39.9282v-1.4468h6.724l4.225 15.6845h.428l4.817-15.6845h7.152l4.817 15.6845h.427l4.226-15.6845h6.527v1.4468l-6.922 23.9871h-7.711l-4.817-14.9775h-.592l-4.652 14.9775h-7.547z" fill="#000"/><path d="m291.168 51.0556c12.61-2.9775 20.418-15.6136 17.441-28.2235-2.978-12.6098-15.614-20.41838-28.224-17.44083-12.609 2.97754-20.418 15.61363-17.44 28.22353 2.977 12.6098 15.613 20.4184 28.223 17.4408z" fill="#056eff"/><path d="m280.661 28.2389c0 .7563-.198 1.3317-.592 1.7591-.395.4275-.954.6248-1.661.6248-.608 0-1.101-.2137-1.447-.6248-.345-.4274-.526-.9535-.526-1.5947v-5.9187h-3.863v5.9516c0 .8056.082 1.5454.23 2.2523.148.707.411 1.3153.789 1.8579.362.5261.855.9535 1.447 1.2494.592.3124 1.332.4604 2.203.4604.69 0 1.315-.1315 1.891-.3781.575-.2467 1.085-.6248 1.529-1.0851v1.2001h3.863v-11.5085h-3.863z" fill="#fff"/><path d="m295.146 22.4844v1.1016c-.444-.4439-.954-.7892-1.529-1.0193-.576-.2302-1.2-.3617-1.891-.3617-.74 0-1.414.1479-2.055.4274-.625.2795-1.167.6905-1.628 1.2002-.46.5261-.822 1.1508-1.068 1.8907-.247.7398-.378 1.5783-.378 2.499 0 .9206.131 1.7591.378 2.499.246.7398.608 1.381 1.068 1.8906.461.5261 1.003.9207 1.628 1.2002s1.315.4275 2.055.4275c.691 0 1.315-.1151 1.891-.3453.575-.2302 1.085-.559 1.529-1.0193v1.0851h3.863v-11.5085h-3.863zm-.51 7.5135c-.427.4274-1.019.6247-1.743.6247-.739 0-1.315-.2137-1.742-.6247-.428-.4275-.641-1.0029-.641-1.7592s.213-1.3317.641-1.7592c.427-.4274 1.019-.6247 1.742-.6247.74 0 1.316.2137 1.743.6247.428.4275.641 1.0029.641 1.7592s-.213 1.3317-.641 1.7592z" fill="#fff"/></svg>